<svg xmlns="http://www.w3.org/2000/svg" xmlns:xlink="http://www.w3.org/1999/xlink" width="2000" zoomAndPan="magnify" viewBox="0 0 1500 1499.999933" height="2000" preserveAspectRatio="xMidYMid meet" version="1.0"><defs><clipPath id="4057f67322"><path d="M 51.644531 4.398438 L 1448.144531 4.398438 L 1448.144531 1499.894531 L 51.644531 1499.894531 Z M 51.644531 4.398438 " clip-rule="nonzero"/></clipPath></defs><g clip-path="url(#4057f67322)"><path fill="#ffffff" d="M 1617.191406 2004.285156 C 1523.136719 2004.285156 1448.742188 2076.816406 1448.742188 2172.734375 C 1448.742188 2268.652344 1523.136719 2341.183594 1617.191406 2341.183594 C 1711.246094 2341.183594 1785.640625 2268.652344 1785.640625 2172.734375 C 1785.640625 2076.816406 1711.246094 2004.285156 1617.191406 2004.285156 Z M 2578.917969 1176.105469 L 1983.246094 1176.105469 L 1983.246094 890.039062 L 2514.195312 890.039062 L 2514.195312 603.976562 L 1983.246094 603.976562 L 1983.246094 321.8125 L 2569.089844 321.8125 L 2569.089844 33.707031 L 1661.941406 33.707031 L 1661.941406 1464.191406 L 2578.917969 1464.191406 Z M 1915.125 2039.539062 C 2009.179688 2039.539062 2083.574219 1967.007812 2083.574219 1871.089844 C 2083.574219 1775.171875 2009.179688 1702.640625 1915.125 1702.640625 C 1821.070312 1702.640625 1746.660156 1775.171875 1746.660156 1871.089844 C 1746.660156 1967.007812 1821.070312 2039.539062 1915.125 2039.539062 Z M 664.941406 1493.503906 C 872.710938 1493.503906 1054.890625 1387.757812 1162.660156 1225.074219 L 1162.660156 1464.191406 L 1444.839844 1464.191406 L 1444.839844 668.714844 L 688.503906 668.714844 L 688.503906 943.074219 L 1005.921875 943.074219 C 976.609375 1090 847.125 1203.726562 690.367188 1203.726562 C 515.976562 1203.726562 374.816406 1062.550781 374.816406 856.824219 L 374.816406 645.15625 C 374.816406 443.316406 525.644531 294.363281 737.300781 294.363281 C 901.863281 294.363281 1048.789062 384.515625 1097.761719 515.847656 L 1395.695312 411.980469 C 1313.332031 161.152344 1046.925781 4.398438 739.339844 4.398438 C 351.429688 4.398438 61.300781 265.035156 61.300781 645.15625 L 61.300781 856.824219 C 61.460938 1223.035156 331.773438 1493.503906 664.941406 1493.503906 Z M 3419.480469 435.699219 L 3102.414062 435.699219 L 3102.414062 892.746094 L 3419.480469 892.746094 Z M 3801.636719 33.707031 L 2716.015625 33.707031 L 2716.015625 321.8125 L 3801.636719 321.8125 Z M 590.5625 3124.984375 L 911.882812 3124.984375 L 911.882812 2582.34375 L 1450.605469 1694.675781 L 1088.105469 1694.675781 L 749.183594 2280.523438 L 414.132812 1694.675781 L 51.648438 1694.675781 L 590.5625 2586.246094 Z M 3419.480469 1006.792969 L 3102.414062 1006.792969 L 3102.414062 1463.683594 L 3419.480469 1463.683594 Z M 5864.230469 3124.984375 L 5474.28125 2578.28125 C 5664.429688 2519.464844 5797.625 2352.878906 5797.625 2149.191406 C 5797.625 1890.574219 5584.105469 1694.5 5313.621094 1694.5 L 5125.511719 1694.5 L 5125.511719 1984.453125 L 5301.929688 1984.453125 C 5395.980469 1984.453125 5468.515625 2058.863281 5468.515625 2156.804688 C 5468.515625 2254.761719 5395.980469 2329.332031 5301.929688 2329.332031 L 5125.511719 2329.332031 L 5125.511719 2603.6875 L 5474.28125 3124.984375 Z M 4271.746094 3353.585938 L 3799.4375 3353.585938 L 3799.4375 4785.933594 L 4271.746094 4785.933594 C 4714.554688 4785.933594 5028.082031 4482.25 5028.082031 4070.78125 C 5028.082031 3659.3125 4714.554688 3353.585938 4271.746094 3353.585938 Z M 4297.15625 4497.832031 L 4120.742188 4497.832031 L 4120.742188 3641.515625 L 4297.15625 3641.515625 C 4536.273438 3641.515625 4698.796875 3825.722656 4698.796875 4070.605469 C 4698.796875 4315.492188 4536.273438 4497.832031 4297.15625 4497.832031 Z M 5541.398438 4211.78125 L 6072.332031 4211.78125 L 6072.332031 3925.71875 L 5541.398438 3925.71875 L 5541.398438 3643.554688 L 6127.242188 3643.554688 L 6127.242188 3355.625 L 5220.078125 3355.625 L 5220.078125 4785.933594 L 6137.070312 4785.933594 L 6137.070312 4497.832031 L 5541.398438 4497.832031 Z M 5029.4375 2641.316406 L 4863.34375 2405.925781 L 5027.222656 2167.828125 L 4861.144531 1932.597656 L 5025.199219 1694.675781 L 4693.890625 1694.835938 L 4529.839844 1935.308594 L 4696.089844 2170.710938 L 4532.039062 2408.8125 L 4698.289062 2644.027344 L 4534.25 2882.296875 L 4710.667969 3127.183594 L 5045.527344 3127.183594 L 4865.382812 2879.589844 Z M 4297.84375 2568.609375 L 4297.84375 1694.675781 L 3978.386719 1694.675781 L 3978.386719 2574.550781 C 3978.386719 2739.097656 3860.769531 2860.617188 3700.128906 2860.617188 C 3539.46875 2860.617188 3421.851562 2739.097656 3421.851562 2574.550781 L 3421.851562 1694.675781 L 3102.414062 1694.675781 L 3102.414062 2568.609375 C 3102.414062 2905.683594 3355.261719 3154.472656 3700.128906 3154.472656 C 4044.992188 3154.472656 4297.84375 2905.523438 4297.84375 2568.609375 Z M 2544.015625 4235.328125 C 2544.015625 4399.890625 2426.398438 4521.394531 2265.742188 4521.394531 C 2105.097656 4521.394531 1987.480469 4399.890625 1987.480469 4235.328125 L 1987.480469 3355.453125 L 1668.027344 3355.453125 L 1668.027344 4229.402344 C 1668.027344 4566.476562 1920.875 4815.246094 2265.742188 4815.246094 C 2610.621094 4815.246094 2863.453125 4566.476562 2863.453125 4229.402344 L 2863.453125 3355.453125 L 2544.015625 3355.453125 Z M 688.503906 4264.816406 L 1005.921875 4264.816406 C 976.609375 4411.742188 847.125 4525.457031 690.367188 4525.457031 C 515.992188 4525.457031 374.832031 4384.292969 374.832031 4178.566406 L 374.832031 3966.898438 C 374.832031 3765.058594 525.644531 3616.089844 737.316406 3616.089844 C 901.878906 3616.089844 1048.804688 3706.257812 1097.777344 3837.589844 L 1395.691406 3733.707031 C 1313.332031 3482.898438 1046.941406 3326.140625 739.355469 3326.140625 C 351.445312 3326.140625 61.300781 3586.78125 61.300781 3966.898438 L 61.300781 4178.566406 C 61.300781 4544.953125 331.773438 4815.421875 664.785156 4815.421875 C 872.550781 4815.421875 1054.730469 4709.675781 1162.519531 4546.992188 L 1162.519531 4786.109375 L 1444.679688 4786.109375 L 1444.679688 3990.617188 L 688.503906 3990.617188 Z M 688.503906 4264.816406 " fill-opacity="1" fill-rule="nonzero"/></g></svg>