<svg xmlns="http://www.w3.org/2000/svg" xmlns:xlink="http://www.w3.org/1999/xlink" width="2000" zoomAndPan="magnify" viewBox="0 0 1500 293.04" height="380" preserveAspectRatio="xMidYMid meet" version="1.0"><defs><g/><clipPath id="aec843ec9f"><path d="M 951.027344 26 L 1191.738281 26 L 1191.738281 268 L 951.027344 268 Z M 951.027344 26 " clip-rule="nonzero"/></clipPath><clipPath id="7ace11ad14"><path d="M 2.449219 0 L 943 0 L 943 284.070312 L 2.449219 284.070312 Z M 2.449219 0 " clip-rule="nonzero"/></clipPath><clipPath id="d37288c04e"><rect x="0" width="941" y="0" height="285"/></clipPath><clipPath id="b2f10f2797"><path d="M 1203 0 L 1497.550781 0 L 1497.550781 284.070312 L 1203 284.070312 Z M 1203 0 " clip-rule="nonzero"/></clipPath><clipPath id="d1e06298d4"><rect x="0" width="295" y="0" height="285"/></clipPath></defs><g clip-path="url(#aec843ec9f)"><path fill="#ffffff" d="M 1084.976562 218.503906 C 1070.964844 231.183594 1055.679688 242.074219 1039.121094 251.175781 C 1034.691406 253.773438 1030.105469 256.183594 1025.367188 258.398438 C 1021.109375 256.632812 1016.964844 254.628906 1012.9375 252.390625 C 1008.910156 250.148438 1005.023438 247.6875 1001.277344 245 C 997.535156 242.3125 993.953125 239.421875 990.542969 236.324219 C 987.128906 233.226562 983.902344 229.945312 980.867188 226.476562 C 977.832031 223.007812 975.003906 219.378906 972.382812 215.585938 C 969.761719 211.796875 967.367188 207.867188 965.199219 203.800781 C 963.03125 199.734375 961.101562 195.554688 959.410156 191.265625 C 957.722656 186.980469 956.285156 182.609375 955.097656 178.15625 C 959.910156 181.136719 964.953125 184 970 186.636719 C 978.824219 191.414062 987.894531 195.683594 997.207031 199.4375 C 1006.515625 203.1875 1016.007812 206.40625 1025.679688 209.089844 C 1035.355469 211.769531 1045.148438 213.898438 1055.0625 215.472656 C 1064.976562 217.046875 1074.945312 218.058594 1084.976562 218.503906 Z M 1016.195312 194.433594 C 1011.601562 185.585938 1007.511719 176.511719 1003.929688 167.210938 C 1000.347656 157.910156 997.292969 148.4375 994.765625 138.796875 C 992.238281 129.152344 990.257812 119.402344 988.820312 109.539062 C 987.378906 99.675781 986.496094 89.761719 986.160156 79.800781 C 986.160156 74.066406 986.160156 68.335938 986.160156 62.71875 C 983.398438 65.492188 980.777344 68.390625 978.300781 71.417969 C 975.820312 74.445312 973.492188 77.585938 971.320312 80.839844 C 969.148438 84.09375 967.140625 87.449219 965.292969 90.898438 C 963.449219 94.347656 961.777344 97.882812 960.273438 101.496094 C 958.773438 105.109375 957.453125 108.789062 956.3125 112.53125 C 955.171875 116.273438 954.214844 120.0625 953.441406 123.898438 C 952.671875 127.734375 952.089844 131.601562 951.695312 135.496094 C 951.300781 139.386719 951.097656 143.289062 951.082031 147.203125 C 951.078125 152.421875 951.421875 157.621094 952.117188 162.792969 C 956.394531 165.699219 960.75 168.449219 965.183594 171.046875 C 981.328125 180.804688 998.371094 188.597656 1016.308594 194.433594 Z M 1087.152344 39.449219 C 1092.082031 36.46875 1097.125 33.488281 1102.285156 30.851562 C 1097.855469 29.675781 1093.375 28.761719 1088.84375 28.097656 C 1084.308594 27.4375 1079.753906 27.039062 1075.175781 26.898438 C 1070.59375 26.757812 1066.023438 26.878906 1061.457031 27.261719 C 1056.890625 27.644531 1052.363281 28.289062 1047.871094 29.191406 C 1043.378906 30.089844 1038.953125 31.246094 1034.59375 32.652344 C 1030.234375 34.058594 1025.96875 35.710938 1021.800781 37.609375 C 1017.628906 39.503906 1013.578125 41.628906 1009.652344 43.988281 C 1005.726562 46.347656 1001.945312 48.921875 998.3125 51.714844 C 998.3125 56.871094 997.625 62.03125 997.511719 67.191406 C 997.25 86.035156 999.046875 104.679688 1002.898438 123.128906 C 1008.25 114.695312 1014.054688 106.585938 1020.316406 98.800781 C 1026.574219 91.015625 1033.246094 83.605469 1040.335938 76.566406 C 1047.421875 69.527344 1054.878906 62.90625 1062.707031 56.699219 C 1070.535156 50.492188 1078.683594 44.742188 1087.152344 39.449219 Z M 1172.785156 107.082031 C 1177.828125 109.71875 1182.871094 112.585938 1187.6875 115.566406 C 1186.5 111.113281 1185.058594 106.742188 1183.371094 102.453125 C 1181.679688 98.164062 1179.753906 93.988281 1177.582031 89.921875 C 1175.414062 85.855469 1173.019531 81.925781 1170.398438 78.132812 C 1167.78125 74.339844 1164.953125 70.710938 1161.914062 67.242188 C 1158.878906 63.777344 1155.652344 60.492188 1152.242188 57.394531 C 1148.828125 54.300781 1145.25 51.40625 1141.503906 48.71875 C 1137.757812 46.035156 1133.871094 43.570312 1129.84375 41.328125 C 1125.816406 39.089844 1121.675781 37.085938 1117.417969 35.320312 C 1112.679688 37.539062 1108.09375 39.945312 1103.660156 42.542969 C 1087.117188 51.667969 1071.835938 62.558594 1057.808594 75.214844 C 1067.835938 75.660156 1077.808594 76.671875 1087.71875 78.246094 C 1097.632812 79.824219 1107.429688 81.949219 1117.101562 84.632812 C 1126.777344 87.3125 1136.265625 90.53125 1145.578125 94.285156 C 1154.886719 98.039062 1163.957031 102.304688 1172.785156 107.082031 Z M 1156.621094 232.148438 C 1159.402344 229.363281 1162.039062 226.453125 1164.535156 223.410156 C 1167.03125 220.367188 1169.371094 217.210938 1171.554688 213.941406 C 1173.742188 210.667969 1175.761719 207.296875 1177.617188 203.828125 C 1179.46875 200.359375 1181.152344 196.804688 1182.65625 193.171875 C 1184.164062 189.535156 1185.488281 185.835938 1186.628906 182.074219 C 1187.773438 178.308594 1188.726562 174.496094 1189.496094 170.636719 C 1190.265625 166.78125 1190.84375 162.894531 1191.230469 158.976562 C 1191.617188 155.0625 1191.8125 151.136719 1191.8125 147.203125 C 1191.820312 141.984375 1191.476562 136.785156 1190.78125 131.613281 C 1186.503906 128.785156 1182.144531 126.035156 1177.714844 123.359375 C 1161.546875 113.761719 1144.507812 106.121094 1126.585938 100.433594 C 1131.183594 109.277344 1135.269531 118.351562 1138.851562 127.652344 C 1142.4375 136.957031 1145.488281 146.425781 1148.015625 156.070312 C 1150.542969 165.710938 1152.523438 175.464844 1153.964844 185.328125 C 1155.402344 195.191406 1156.289062 205.105469 1156.621094 215.066406 C 1157.421875 220.796875 1157.421875 226.53125 1156.621094 232.148438 Z M 1055.742188 255.074219 C 1050.816406 258.054688 1045.769531 261.035156 1040.613281 263.671875 C 1045.039062 264.84375 1049.519531 265.761719 1054.054688 266.421875 C 1058.589844 267.085938 1063.144531 267.484375 1067.722656 267.625 C 1072.300781 267.765625 1076.875 267.640625 1081.441406 267.257812 C 1086.003906 266.875 1090.535156 266.234375 1095.023438 265.332031 C 1099.515625 264.429688 1103.941406 263.277344 1108.300781 261.867188 C 1112.660156 260.460938 1116.925781 258.808594 1121.097656 256.914062 C 1125.269531 255.019531 1129.316406 252.890625 1133.246094 250.53125 C 1137.171875 248.175781 1140.953125 245.597656 1144.585938 242.808594 C 1144.585938 237.648438 1145.273438 232.492188 1145.386719 227.332031 C 1145.648438 208.488281 1143.851562 189.839844 1140 171.390625 C 1134.644531 179.816406 1128.835938 187.914062 1122.574219 195.6875 C 1116.3125 203.464844 1109.640625 210.867188 1102.554688 217.894531 C 1095.464844 224.925781 1088.007812 231.539062 1080.183594 237.734375 C 1072.359375 243.929688 1064.210938 249.671875 1055.742188 254.960938 Z M 1055.742188 255.074219 " fill-opacity="1" fill-rule="nonzero"/></g><g clip-path="url(#7ace11ad14)"><g transform="matrix(1, 0, 0, 1, 2, -0.000000000000008175)"><g clip-path="url(#d37288c04e)"><g fill="#ffffff" fill-opacity="1"><g transform="translate(-6.59581, 263.33769)"><g><path d="M 95.9375 3.515625 C 81.875 3.515625 68.816406 1.222656 56.765625 -3.359375 C 44.722656 -7.941406 34.753906 -14.816406 26.859375 -23.984375 C 18.972656 -33.148438 13.960938 -44.878906 11.828125 -59.171875 L 49.890625 -59.171875 C 52.453125 -49.148438 57.675781 -41.3125 65.5625 -35.65625 C 73.445312 -30.007812 83.570312 -27.1875 95.9375 -27.1875 C 105.957031 -27.1875 114.21875 -29.15625 120.71875 -33.09375 C 127.226562 -37.039062 130.484375 -42.640625 130.484375 -49.890625 C 130.484375 -56.078125 128.40625 -60.820312 124.25 -64.125 C 120.09375 -67.425781 114.601562 -70.085938 107.78125 -72.109375 C 100.957031 -74.140625 93.597656 -75.898438 85.703125 -77.390625 C 78.035156 -78.890625 70.304688 -80.648438 62.515625 -82.671875 C 54.734375 -84.691406 47.535156 -87.515625 40.921875 -91.140625 C 34.316406 -94.765625 29.039062 -99.613281 25.09375 -105.6875 C 21.15625 -111.769531 19.1875 -119.71875 19.1875 -129.53125 C 19.1875 -141.46875 22.273438 -151.328125 28.453125 -159.109375 C 34.640625 -166.890625 42.90625 -172.644531 53.25 -176.375 C 63.59375 -180.101562 74.835938 -181.96875 86.984375 -181.96875 C 107.242188 -181.96875 124.25 -176.796875 138 -166.453125 C 151.75 -156.117188 160.222656 -141.570312 163.421875 -122.8125 L 127.921875 -122.8125 C 125.148438 -132.832031 120.085938 -140.132812 112.734375 -144.71875 C 105.378906 -149.300781 96.796875 -151.59375 86.984375 -151.59375 C 77.390625 -151.59375 69.820312 -149.78125 64.28125 -146.15625 C 58.738281 -142.53125 55.96875 -137.625 55.96875 -131.4375 C 55.96875 -126.113281 57.992188 -121.90625 62.046875 -118.8125 C 66.097656 -115.71875 71.375 -113.316406 77.875 -111.609375 C 84.375 -109.910156 91.460938 -108.3125 99.140625 -106.8125 C 107.023438 -105.320312 115.019531 -103.5625 123.125 -101.53125 C 131.226562 -99.507812 138.632812 -96.632812 145.34375 -92.90625 C 152.0625 -89.175781 157.5 -84.164062 161.65625 -77.875 C 165.820312 -71.582031 167.90625 -63.320312 167.90625 -53.09375 C 167.90625 -36.25 161.613281 -22.601562 149.03125 -12.15625 C 136.445312 -1.707031 118.75 3.515625 95.9375 3.515625 Z M 95.9375 3.515625 "/></g></g></g><g fill="#ffffff" fill-opacity="1"><g transform="translate(175.374282, 263.33769)"><g><path d="M 71.640625 3.515625 C 54.578125 3.515625 40.609375 -1.015625 29.734375 -10.078125 C 18.867188 -19.140625 13.4375 -31.984375 13.4375 -48.609375 C 13.4375 -57.347656 15.191406 -64.96875 18.703125 -71.46875 C 22.222656 -77.976562 26.96875 -83.472656 32.9375 -87.953125 C 38.476562 -92.003906 44.765625 -95.253906 51.796875 -97.703125 C 58.835938 -100.148438 66.410156 -102.125 74.515625 -103.625 L 131.125 -114.171875 C 130.90625 -126.109375 127.707031 -135.273438 121.53125 -141.671875 C 114.914062 -148.285156 105.960938 -151.59375 94.671875 -151.59375 C 85.710938 -151.59375 77.765625 -149.03125 70.828125 -143.90625 C 63.898438 -138.789062 59.585938 -131.648438 57.890625 -122.484375 L 20.140625 -122.484375 C 22.273438 -135.921875 27.070312 -147.007812 34.53125 -155.75 C 42 -164.488281 51.0625 -171.039062 61.71875 -175.40625 C 72.382812 -179.78125 83.472656 -181.96875 94.984375 -181.96875 C 105.429688 -181.96875 115.34375 -180.53125 124.71875 -177.65625 C 134.101562 -174.78125 142.101562 -170.25 148.71875 -164.0625 C 155.320312 -157.882812 160.007812 -150.898438 162.78125 -143.109375 C 165.550781 -135.328125 167.203125 -127.382812 167.734375 -119.28125 C 168.273438 -111.1875 168.546875 -103.726562 168.546875 -96.90625 L 168.546875 0 L 130.796875 0 L 130.796875 -25.578125 C 126.109375 -17.484375 120.140625 -11.085938 112.890625 -6.390625 C 107.347656 -2.765625 101.113281 -0.207031 94.1875 1.28125 C 87.257812 2.769531 79.742188 3.515625 71.640625 3.515625 Z M 79.953125 -27.1875 C 88.691406 -27.1875 96.898438 -29 104.578125 -32.625 C 115.234375 -37.945312 122.375 -44.925781 126 -53.5625 C 129.625 -62.195312 131.4375 -72.910156 131.4375 -85.703125 L 83.796875 -76.4375 C 71.421875 -73.875 62.675781 -70.25 57.5625 -65.5625 C 53.300781 -61.300781 51.171875 -55.972656 51.171875 -49.578125 C 51.171875 -42.328125 53.832031 -36.78125 59.15625 -32.9375 C 64.488281 -29.101562 71.421875 -27.1875 79.953125 -27.1875 Z M 79.953125 -27.1875 "/></g></g></g><g fill="#ffffff" fill-opacity="1"><g transform="translate(362.781092, 263.33769)"><g><path d="M 111.9375 3.515625 C 100.84375 3.515625 91.140625 1.488281 82.828125 -2.5625 C 74.515625 -6.613281 66.414062 -13.863281 58.53125 -24.3125 L 58.53125 0 L 20.78125 0 L 20.78125 -244.015625 L 58.53125 -244.015625 L 58.53125 -154.46875 C 66.625 -165.125 74.828125 -172.367188 83.140625 -176.203125 C 91.460938 -180.046875 101.0625 -181.96875 111.9375 -181.96875 C 127.707031 -181.96875 141.457031 -178.023438 153.1875 -170.140625 C 164.914062 -162.253906 174.082031 -151.378906 180.6875 -137.515625 C 187.300781 -123.660156 190.609375 -107.566406 190.609375 -89.234375 C 190.609375 -71.109375 187.300781 -55.0625 180.6875 -41.09375 C 174.082031 -27.125 164.914062 -16.195312 153.1875 -8.3125 C 141.457031 -0.425781 127.707031 3.515625 111.9375 3.515625 Z M 104.265625 -29.109375 C 114.285156 -29.109375 122.863281 -31.71875 130 -36.9375 C 137.144531 -42.164062 142.6875 -49.304688 146.625 -58.359375 C 150.570312 -67.421875 152.546875 -77.710938 152.546875 -89.234375 C 152.546875 -100.742188 150.570312 -111.03125 146.625 -120.09375 C 142.6875 -129.15625 137.144531 -136.296875 130 -141.515625 C 122.863281 -146.742188 114.285156 -149.359375 104.265625 -149.359375 C 94.671875 -149.359375 86.140625 -146.796875 78.671875 -141.671875 C 71.210938 -136.554688 65.347656 -129.46875 61.078125 -120.40625 C 56.816406 -111.34375 54.6875 -100.953125 54.6875 -89.234375 C 54.6875 -77.503906 56.816406 -67.109375 61.078125 -58.046875 C 65.347656 -48.984375 71.210938 -41.894531 78.671875 -36.78125 C 86.140625 -31.664062 94.671875 -29.109375 104.265625 -29.109375 Z M 104.265625 -29.109375 "/></g></g></g><g fill="#ffffff" fill-opacity="1"><g transform="translate(567.457462, 263.33769)"><g><path d="M 95.9375 3.515625 C 81.875 3.515625 68.816406 1.222656 56.765625 -3.359375 C 44.722656 -7.941406 34.753906 -14.816406 26.859375 -23.984375 C 18.972656 -33.148438 13.960938 -44.878906 11.828125 -59.171875 L 49.890625 -59.171875 C 52.453125 -49.148438 57.675781 -41.3125 65.5625 -35.65625 C 73.445312 -30.007812 83.570312 -27.1875 95.9375 -27.1875 C 105.957031 -27.1875 114.21875 -29.15625 120.71875 -33.09375 C 127.226562 -37.039062 130.484375 -42.640625 130.484375 -49.890625 C 130.484375 -56.078125 128.40625 -60.820312 124.25 -64.125 C 120.09375 -67.425781 114.601562 -70.085938 107.78125 -72.109375 C 100.957031 -74.140625 93.597656 -75.898438 85.703125 -77.390625 C 78.035156 -78.890625 70.304688 -80.648438 62.515625 -82.671875 C 54.734375 -84.691406 47.535156 -87.515625 40.921875 -91.140625 C 34.316406 -94.765625 29.039062 -99.613281 25.09375 -105.6875 C 21.15625 -111.769531 19.1875 -119.71875 19.1875 -129.53125 C 19.1875 -141.46875 22.273438 -151.328125 28.453125 -159.109375 C 34.640625 -166.890625 42.90625 -172.644531 53.25 -176.375 C 63.59375 -180.101562 74.835938 -181.96875 86.984375 -181.96875 C 107.242188 -181.96875 124.25 -176.796875 138 -166.453125 C 151.75 -156.117188 160.222656 -141.570312 163.421875 -122.8125 L 127.921875 -122.8125 C 125.148438 -132.832031 120.085938 -140.132812 112.734375 -144.71875 C 105.378906 -149.300781 96.796875 -151.59375 86.984375 -151.59375 C 77.390625 -151.59375 69.820312 -149.78125 64.28125 -146.15625 C 58.738281 -142.53125 55.96875 -137.625 55.96875 -131.4375 C 55.96875 -126.113281 57.992188 -121.90625 62.046875 -118.8125 C 66.097656 -115.71875 71.375 -113.316406 77.875 -111.609375 C 84.375 -109.910156 91.460938 -108.3125 99.140625 -106.8125 C 107.023438 -105.320312 115.019531 -103.5625 123.125 -101.53125 C 131.226562 -99.507812 138.632812 -96.632812 145.34375 -92.90625 C 152.0625 -89.175781 157.5 -84.164062 161.65625 -77.875 C 165.820312 -71.582031 167.90625 -63.320312 167.90625 -53.09375 C 167.90625 -36.25 161.613281 -22.601562 149.03125 -12.15625 C 136.445312 -1.707031 118.75 3.515625 95.9375 3.515625 Z M 95.9375 3.515625 "/></g></g></g><g fill="#ffffff" fill-opacity="1"><g transform="translate(749.427584, 263.33769)"><g><path d="M 58.53125 0 L 20.78125 0 L 20.78125 -244.015625 L 58.53125 -244.015625 L 58.53125 -154.46875 C 66.414062 -165.125 74.351562 -172.367188 82.34375 -176.203125 C 90.34375 -180.046875 99.140625 -181.96875 108.734375 -181.96875 C 124.296875 -181.96875 136.285156 -179.140625 144.703125 -173.484375 C 153.128906 -167.835938 159.367188 -160.96875 163.421875 -152.875 C 167.265625 -144.976562 169.503906 -136.925781 170.140625 -128.71875 C 170.773438 -120.507812 171.09375 -112.460938 171.09375 -104.578125 L 171.09375 0 L 133.359375 0 L 133.359375 -104.578125 C 133.359375 -122.484375 130.269531 -134.847656 124.09375 -141.671875 C 118.96875 -147.429688 110.863281 -150.3125 99.78125 -150.3125 C 86.988281 -150.3125 77.394531 -146.472656 71 -138.796875 C 66.738281 -134.109375 63.59375 -127.660156 61.5625 -119.453125 C 59.539062 -111.242188 58.53125 -100.101562 58.53125 -86.03125 Z M 58.53125 0 "/></g></g></g></g></g></g><g clip-path="url(#b2f10f2797)"><g transform="matrix(1, 0, 0, 1, 1203, -0.000000000000008175)"><g clip-path="url(#d1e06298d4)"><g fill="#ffffff" fill-opacity="1"><g transform="translate(0.929633, 264.346369)"><g><path d="M 108.828125 0 L 76.8125 0 C 63.582031 0 53.285156 -3.039062 45.921875 -9.125 C 38.566406 -15.207031 34.890625 -25.929688 34.890625 -41.296875 L 34.890625 -147.5625 L 8 -147.5625 L 8 -178.921875 L 34.890625 -178.921875 L 34.890625 -244.21875 L 72.65625 -244.21875 L 72.65625 -178.921875 L 109.140625 -178.921875 L 109.140625 -147.5625 L 72.65625 -147.5625 L 72.65625 -51.859375 C 72.65625 -46.085938 73.5625 -41.28125 75.375 -37.4375 C 77.1875 -33.601562 82.039062 -31.6875 89.9375 -31.6875 L 108.828125 -31.6875 Z M 108.828125 0 "/></g></g></g><g fill="#ffffff" fill-opacity="1"><g transform="translate(121.276201, 264.346369)"><g><path d="M 96.03125 3.515625 C 81.9375 3.515625 68.863281 1.222656 56.8125 -3.359375 C 44.757812 -7.953125 34.785156 -14.832031 26.890625 -24 C 18.992188 -33.175781 13.976562 -44.914062 11.84375 -59.21875 L 49.9375 -59.21875 C 52.488281 -49.1875 57.710938 -41.34375 65.609375 -35.6875 C 73.503906 -30.03125 83.644531 -27.203125 96.03125 -27.203125 C 106.050781 -27.203125 114.316406 -29.175781 120.828125 -33.125 C 127.335938 -37.070312 130.59375 -42.675781 130.59375 -49.9375 C 130.59375 -56.125 128.507812 -60.867188 124.34375 -64.171875 C 120.1875 -67.484375 114.691406 -70.148438 107.859375 -72.171875 C 101.035156 -74.203125 93.675781 -75.960938 85.78125 -77.453125 C 78.101562 -78.953125 70.367188 -80.710938 62.578125 -82.734375 C 54.785156 -84.765625 47.582031 -87.59375 40.96875 -91.21875 C 34.351562 -94.84375 29.070312 -99.695312 25.125 -105.78125 C 21.175781 -111.863281 19.203125 -119.8125 19.203125 -129.625 C 19.203125 -141.582031 22.296875 -151.453125 28.484375 -159.234375 C 34.671875 -167.023438 42.9375 -172.785156 53.28125 -176.515625 C 63.632812 -180.253906 74.894531 -182.125 87.0625 -182.125 C 107.332031 -182.125 124.347656 -176.945312 138.109375 -166.59375 C 151.878906 -156.25 160.363281 -141.6875 163.5625 -122.90625 L 128.03125 -122.90625 C 125.257812 -132.9375 120.191406 -140.242188 112.828125 -144.828125 C 105.460938 -149.421875 96.875 -151.71875 87.0625 -151.71875 C 77.457031 -151.71875 69.878906 -149.898438 64.328125 -146.265625 C 58.785156 -142.640625 56.015625 -137.734375 56.015625 -131.546875 C 56.015625 -126.210938 58.039062 -122 62.09375 -118.90625 C 66.144531 -115.8125 71.425781 -113.410156 77.9375 -111.703125 C 84.445312 -109.992188 91.539062 -108.394531 99.21875 -106.90625 C 107.113281 -105.414062 115.113281 -103.65625 123.21875 -101.625 C 131.332031 -99.59375 138.75 -96.707031 145.46875 -92.96875 C 152.195312 -89.238281 157.640625 -84.226562 161.796875 -77.9375 C 165.960938 -71.644531 168.046875 -63.378906 168.046875 -53.140625 C 168.046875 -36.273438 161.75 -22.613281 149.15625 -12.15625 C 136.5625 -1.707031 118.851562 3.515625 96.03125 3.515625 Z M 96.03125 3.515625 "/></g></g></g></g></g></g></svg>