<svg xmlns="http://www.w3.org/2000/svg" xmlns:xlink="http://www.w3.org/1999/xlink" viewBox="0 0 1500 293.04" preserveAspectRatio="xMidYMid meet" version="1.0"><defs><g/><clipPath id="abff8c455d"><path d="M 2.449219 0 L 938 0 L 938 284.070312 L 2.449219 284.070312 Z M 2.449219 0 " clip-rule="nonzero"/></clipPath><clipPath id="3db01e3321"><rect x="0" width="936" y="0" height="285"/></clipPath><clipPath id="529a7c8e33"><path d="M 1206 0 L 1497.550781 0 L 1497.550781 284.070312 L 1206 284.070312 Z M 1206 0 " clip-rule="nonzero"/></clipPath><clipPath id="3e4692744d"><rect x="0" width="292" y="0" height="285"/></clipPath><clipPath id="7bba0a4b4f"><path d="M 948.273438 22.21875 L 1196.460938 22.21875 L 1196.460938 271 L 948.273438 271 Z M 948.273438 22.21875 " clip-rule="nonzero"/></clipPath></defs><g clip-path="url(#abff8c455d)"><g transform="matrix(1, 0, 0, 1, 2, -0.000000000000008175)"><g clip-path="url(#3db01e3321)"><g fill="#ffffff" fill-opacity="1"><g transform="translate(-3.384987, 266.945019)"><g><path d="M 98.59375 3.625 C 83.863281 3.625 70.394531 1.207031 58.1875 -3.625 C 45.988281 -8.457031 35.929688 -15.597656 28.015625 -25.046875 C 20.109375 -34.503906 15.054688 -46.269531 12.859375 -60.34375 L 49.453125 -60.34375 C 52.097656 -49.789062 57.484375 -41.488281 65.609375 -35.4375 C 73.742188 -29.394531 84.738281 -26.375 98.59375 -26.375 C 109.582031 -26.375 118.535156 -28.460938 125.453125 -32.640625 C 132.378906 -36.816406 135.84375 -42.972656 135.84375 -51.109375 C 135.84375 -57.703125 133.585938 -62.8125 129.078125 -66.4375 C 124.578125 -70.0625 118.753906 -72.914062 111.609375 -75 C 104.472656 -77.09375 96.726562 -78.910156 88.375 -80.453125 C 80.457031 -81.992188 72.484375 -83.804688 64.453125 -85.890625 C 56.429688 -87.984375 49.066406 -90.84375 42.359375 -94.46875 C 35.660156 -98.09375 30.332031 -103.035156 26.375 -109.296875 C 22.414062 -115.566406 20.4375 -123.648438 20.4375 -133.546875 C 20.4375 -145.628906 23.566406 -155.628906 29.828125 -163.546875 C 36.097656 -171.460938 44.453125 -177.398438 54.890625 -181.359375 C 65.335938 -185.316406 76.828125 -187.296875 89.359375 -187.296875 C 110.023438 -187.296875 127.28125 -181.960938 141.125 -171.296875 C 154.976562 -160.640625 163.550781 -145.859375 166.84375 -126.953125 L 132.890625 -126.953125 C 130.023438 -137.722656 124.691406 -145.523438 116.890625 -150.359375 C 109.085938 -155.191406 99.910156 -157.609375 89.359375 -157.609375 C 78.804688 -157.609375 70.5625 -155.628906 64.625 -151.671875 C 58.6875 -147.722656 55.71875 -142.335938 55.71875 -135.515625 C 55.71875 -129.804688 57.859375 -125.300781 62.140625 -122 C 66.429688 -118.707031 71.984375 -116.179688 78.796875 -114.421875 C 85.617188 -112.660156 92.988281 -111.007812 100.90625 -109.46875 C 109.03125 -107.925781 117.269531 -106.113281 125.625 -104.03125 C 133.976562 -101.945312 141.617188 -98.976562 148.546875 -95.125 C 155.472656 -91.28125 161.078125 -86.113281 165.359375 -79.625 C 169.648438 -73.144531 171.796875 -64.628906 171.796875 -54.078125 C 171.796875 -36.710938 165.363281 -22.753906 152.5 -12.203125 C 139.644531 -1.648438 121.675781 3.625 98.59375 3.625 Z M 98.59375 3.625 "/></g></g></g><g fill="#ffffff" fill-opacity="1"><g transform="translate(176.646221, 266.945019)"><g><path d="M 74.1875 3.625 C 56.382812 3.625 41.929688 -1.097656 30.828125 -10.546875 C 19.722656 -20.003906 14.171875 -33.085938 14.171875 -49.796875 C 14.171875 -58.585938 15.929688 -66.28125 19.453125 -72.875 C 22.972656 -79.46875 27.8125 -85.070312 33.96875 -89.6875 C 39.457031 -93.644531 45.773438 -96.941406 52.921875 -99.578125 C 60.066406 -102.210938 67.925781 -104.300781 76.5 -105.84375 L 136.515625 -117.390625 C 136.296875 -130.140625 132.882812 -139.921875 126.28125 -146.734375 C 119.03125 -153.984375 109.359375 -157.609375 97.265625 -157.609375 C 87.378906 -157.609375 78.753906 -154.859375 71.390625 -149.359375 C 64.023438 -143.867188 59.351562 -136.289062 57.375 -126.625 L 21.4375 -126.625 C 23.632812 -140.25 28.46875 -151.507812 35.9375 -160.40625 C 43.414062 -169.3125 52.59375 -176.019531 63.46875 -180.53125 C 74.351562 -185.039062 85.726562 -187.296875 97.59375 -187.296875 C 108.144531 -187.296875 118.203125 -185.753906 127.765625 -182.671875 C 137.328125 -179.597656 145.519531 -174.875 152.34375 -168.5 C 159.15625 -162.34375 163.929688 -155.25 166.671875 -147.21875 C 169.421875 -139.195312 171.070312 -131.226562 171.625 -123.3125 C 172.175781 -115.40625 172.453125 -108.265625 172.453125 -101.890625 L 172.453125 0 L 136.1875 0 L 136.1875 -27.03125 C 133.539062 -22.632812 130.625 -18.785156 127.4375 -15.484375 C 124.25 -12.191406 120.789062 -9.335938 117.0625 -6.921875 C 111.125 -3.179688 104.582031 -0.488281 97.4375 1.15625 C 90.289062 2.800781 82.539062 3.625 74.1875 3.625 Z M 81.4375 -26.375 C 91.113281 -26.375 99.910156 -28.351562 107.828125 -32.3125 C 119.253906 -38.03125 126.945312 -45.613281 130.90625 -55.0625 C 134.863281 -64.519531 136.84375 -76.0625 136.84375 -89.6875 L 85.078125 -79.46875 C 72.328125 -76.832031 63.09375 -72.875 57.375 -67.59375 C 52.757812 -62.976562 50.453125 -57.375 50.453125 -50.78125 C 50.453125 -43.082031 53.304688 -37.085938 59.015625 -32.796875 C 64.734375 -28.515625 72.207031 -26.375 81.4375 -26.375 Z M 81.4375 -26.375 "/></g></g></g><g fill="#ffffff" fill-opacity="1"><g transform="translate(362.612486, 266.945019)"><g><path d="M 114.421875 3.625 C 102.765625 3.625 92.59375 1.480469 83.90625 -2.796875 C 75.226562 -7.085938 66.710938 -14.835938 58.359375 -26.046875 L 58.359375 0 L 22.09375 0 L 22.09375 -251.59375 L 58.359375 -251.59375 L 58.359375 -157.9375 C 66.710938 -169.375 75.285156 -177.125 84.078125 -181.1875 C 92.867188 -185.257812 102.984375 -187.296875 114.421875 -187.296875 C 130.679688 -187.296875 144.910156 -183.226562 157.109375 -175.09375 C 169.316406 -166.957031 178.769531 -155.742188 185.46875 -141.453125 C 192.175781 -127.160156 195.53125 -110.566406 195.53125 -91.671875 C 195.53125 -72.984375 192.175781 -56.492188 185.46875 -42.203125 C 178.769531 -27.910156 169.316406 -16.695312 157.109375 -8.5625 C 144.910156 -0.4375 130.679688 3.625 114.421875 3.625 Z M 107.828125 -28.03125 C 118.378906 -28.03125 127.5 -30.773438 135.1875 -36.265625 C 142.882812 -41.765625 148.820312 -49.347656 153 -59.015625 C 157.175781 -68.691406 159.265625 -79.578125 159.265625 -91.671875 C 159.265625 -103.972656 157.175781 -114.957031 153 -124.625 C 148.820312 -134.300781 142.882812 -141.890625 135.1875 -147.390625 C 127.5 -152.890625 118.378906 -155.640625 107.828125 -155.640625 C 97.492188 -155.640625 88.367188 -152.945312 80.453125 -147.5625 C 72.535156 -142.175781 66.320312 -134.644531 61.8125 -124.96875 C 57.3125 -115.300781 55.0625 -104.203125 55.0625 -91.671875 C 55.0625 -79.359375 57.3125 -68.363281 61.8125 -58.6875 C 66.320312 -49.019531 72.535156 -41.492188 80.453125 -36.109375 C 88.367188 -30.722656 97.492188 -28.03125 107.828125 -28.03125 Z M 107.828125 -28.03125 "/></g></g></g><g fill="#ffffff" fill-opacity="1"><g transform="translate(566.713844, 266.945019)"><g><path d="M 98.59375 3.625 C 83.863281 3.625 70.394531 1.207031 58.1875 -3.625 C 45.988281 -8.457031 35.929688 -15.597656 28.015625 -25.046875 C 20.109375 -34.503906 15.054688 -46.269531 12.859375 -60.34375 L 49.453125 -60.34375 C 52.097656 -49.789062 57.484375 -41.488281 65.609375 -35.4375 C 73.742188 -29.394531 84.738281 -26.375 98.59375 -26.375 C 109.582031 -26.375 118.535156 -28.460938 125.453125 -32.640625 C 132.378906 -36.816406 135.84375 -42.972656 135.84375 -51.109375 C 135.84375 -57.703125 133.585938 -62.8125 129.078125 -66.4375 C 124.578125 -70.0625 118.753906 -72.914062 111.609375 -75 C 104.472656 -77.09375 96.726562 -78.910156 88.375 -80.453125 C 80.457031 -81.992188 72.484375 -83.804688 64.453125 -85.890625 C 56.429688 -87.984375 49.066406 -90.84375 42.359375 -94.46875 C 35.660156 -98.09375 30.332031 -103.035156 26.375 -109.296875 C 22.414062 -115.566406 20.4375 -123.648438 20.4375 -133.546875 C 20.4375 -145.628906 23.566406 -155.628906 29.828125 -163.546875 C 36.097656 -171.460938 44.453125 -177.398438 54.890625 -181.359375 C 65.335938 -185.316406 76.828125 -187.296875 89.359375 -187.296875 C 110.023438 -187.296875 127.28125 -181.960938 141.125 -171.296875 C 154.976562 -160.640625 163.550781 -145.859375 166.84375 -126.953125 L 132.890625 -126.953125 C 130.023438 -137.722656 124.691406 -145.523438 116.890625 -150.359375 C 109.085938 -155.191406 99.910156 -157.609375 89.359375 -157.609375 C 78.804688 -157.609375 70.5625 -155.628906 64.625 -151.671875 C 58.6875 -147.722656 55.71875 -142.335938 55.71875 -135.515625 C 55.71875 -129.804688 57.859375 -125.300781 62.140625 -122 C 66.429688 -118.707031 71.984375 -116.179688 78.796875 -114.421875 C 85.617188 -112.660156 92.988281 -111.007812 100.90625 -109.46875 C 109.03125 -107.925781 117.269531 -106.113281 125.625 -104.03125 C 133.976562 -101.945312 141.617188 -98.976562 148.546875 -95.125 C 155.472656 -91.28125 161.078125 -86.113281 165.359375 -79.625 C 169.648438 -73.144531 171.796875 -64.628906 171.796875 -54.078125 C 171.796875 -36.710938 165.363281 -22.753906 152.5 -12.203125 C 139.644531 -1.648438 121.675781 3.625 98.59375 3.625 Z M 98.59375 3.625 "/></g></g></g><g fill="#ffffff" fill-opacity="1"><g transform="translate(746.74506, 266.945019)"><g><path d="M 58.359375 0 L 22.09375 0 L 22.09375 -251.59375 L 58.359375 -251.59375 L 58.359375 -157.9375 C 66.710938 -168.925781 75.007812 -176.566406 83.25 -180.859375 C 91.5 -185.148438 100.570312 -187.296875 110.46875 -187.296875 C 126.070312 -187.296875 138.210938 -184.4375 146.890625 -178.71875 C 155.578125 -173 162.007812 -165.960938 166.1875 -157.609375 C 170.363281 -149.472656 172.78125 -141.117188 173.4375 -132.546875 C 174.09375 -123.972656 174.421875 -115.84375 174.421875 -108.15625 L 174.421875 0 L 138.15625 0 L 138.15625 -108.484375 C 138.15625 -127.171875 134.859375 -140.140625 128.265625 -147.390625 C 122.765625 -153.546875 114.191406 -156.625 102.546875 -156.625 C 95.734375 -156.625 89.796875 -155.523438 84.734375 -153.328125 C 79.679688 -151.128906 75.394531 -148.050781 71.875 -144.09375 C 67.039062 -138.820312 63.578125 -131.734375 61.484375 -122.828125 C 59.398438 -113.921875 58.359375 -101.664062 58.359375 -86.0625 Z M 58.359375 0 "/></g></g></g></g></g></g><g clip-path="url(#529a7c8e33)"><g transform="matrix(1, 0, 0, 1, 1206, -0.000000000000008175)"><g clip-path="url(#3e4692744d)"><g fill="#ffffff" fill-opacity="1"><g transform="translate(0.30591, 268.007232)"><g><path d="M 110.875 0 L 79.859375 0 C 66.222656 0 55.609375 -3.132812 48.015625 -9.40625 C 40.421875 -15.675781 36.625 -26.953125 36.625 -43.234375 L 36.625 -153.453125 L 8.25 -153.453125 L 8.25 -183.8125 L 36.625 -183.8125 L 36.625 -251.796875 L 72.9375 -251.796875 L 72.9375 -183.8125 L 111.203125 -183.8125 L 111.203125 -153.453125 L 72.9375 -153.453125 L 72.9375 -52.796875 C 72.9375 -46.421875 73.867188 -41.140625 75.734375 -36.953125 C 77.609375 -32.773438 82.832031 -30.6875 91.40625 -30.6875 L 110.875 -30.6875 Z M 110.875 0 "/></g></g></g><g fill="#ffffff" fill-opacity="1"><g transform="translate(116.464846, 268.007232)"><g><path d="M 98.671875 3.625 C 83.929688 3.625 70.457031 1.207031 58.25 -3.625 C 46.039062 -8.46875 35.972656 -15.617188 28.046875 -25.078125 C 20.128906 -34.535156 15.070312 -46.304688 12.875 -60.390625 L 49.5 -60.390625 C 52.132812 -49.828125 57.519531 -41.519531 65.65625 -35.46875 C 73.800781 -29.425781 84.804688 -26.40625 98.671875 -26.40625 C 109.671875 -26.40625 118.632812 -28.492188 125.5625 -32.671875 C 132.488281 -36.847656 135.953125 -43.007812 135.953125 -51.15625 C 135.953125 -57.75 133.695312 -62.859375 129.1875 -66.484375 C 124.6875 -70.117188 118.859375 -72.976562 111.703125 -75.0625 C 104.554688 -77.15625 96.800781 -78.972656 88.4375 -80.515625 C 80.519531 -82.054688 72.546875 -83.867188 64.515625 -85.953125 C 56.484375 -88.046875 49.113281 -90.90625 42.40625 -94.53125 C 35.695312 -98.164062 30.359375 -103.117188 26.390625 -109.390625 C 22.429688 -115.660156 20.453125 -123.75 20.453125 -133.65625 C 20.453125 -145.75 23.585938 -155.753906 29.859375 -163.671875 C 36.128906 -171.597656 44.488281 -177.539062 54.9375 -181.5 C 65.394531 -185.457031 76.894531 -187.4375 89.4375 -187.4375 C 110.113281 -187.4375 127.378906 -182.101562 141.234375 -171.4375 C 155.097656 -160.769531 163.679688 -145.972656 166.984375 -127.046875 L 132.984375 -127.046875 C 130.128906 -137.828125 124.796875 -145.632812 116.984375 -150.46875 C 109.171875 -155.3125 99.988281 -157.734375 89.4375 -157.734375 C 78.875 -157.734375 70.617188 -155.753906 64.671875 -151.796875 C 58.734375 -147.835938 55.765625 -142.445312 55.765625 -135.625 C 55.765625 -129.90625 57.910156 -125.394531 62.203125 -122.09375 C 66.492188 -118.800781 72.046875 -116.273438 78.859375 -114.515625 C 85.679688 -112.753906 93.054688 -111.101562 100.984375 -109.5625 C 109.117188 -108.019531 117.363281 -106.203125 125.71875 -104.109375 C 134.082031 -102.023438 141.726562 -99.054688 148.65625 -95.203125 C 155.59375 -91.359375 161.207031 -86.1875 165.5 -79.6875 C 169.789062 -73.195312 171.9375 -64.675781 171.9375 -54.125 C 171.9375 -36.738281 165.5 -22.765625 152.625 -12.203125 C 139.75 -1.648438 121.765625 3.625 98.671875 3.625 Z M 98.671875 3.625 "/></g></g></g></g></g></g><g clip-path="url(#7bba0a4b4f)"><path fill="#ffffff" d="M 1151.6875 206.0625 C 1151.472656 206.34375 1151.21875 206.59375 1150.703125 207.167969 C 1134.183594 178.667969 1117.78125 150.363281 1101.128906 121.652344 C 1102.488281 121.589844 1103.273438 121.519531 1104.046875 121.519531 C 1124.761719 121.511719 1145.480469 121.539062 1166.1875 121.472656 C 1168.15625 121.464844 1168.941406 122.007812 1169.378906 124.019531 C 1173.492188 142.660156 1172.722656 161.042969 1166.332031 179.039062 C 1162.878906 188.773438 1158.023438 197.84375 1151.6875 206.0625 M 1140.859375 218.484375 C 1130.996094 227.292969 1120.066406 234.367188 1107.714844 239.199219 C 1092.617188 245.109375 1077.042969 247.046875 1060.96875 244.855469 C 1060.414062 244.78125 1059.863281 244.617188 1058.976562 244.425781 C 1075.554688 215.839844 1091.929688 187.597656 1108.558594 158.921875 C 1109.925781 161.273438 1111.066406 163.21875 1112.183594 165.167969 C 1119.402344 177.726562 1126.617188 190.292969 1133.832031 202.855469 C 1136.292969 207.128906 1138.722656 211.410156 1141.214844 215.65625 C 1141.859375 216.761719 1141.910156 217.542969 1140.859375 218.484375 M 1044.09375 241.554688 C 1034.28125 238.699219 1025.15625 234.414062 1016.722656 228.632812 C 1001.617188 218.285156 990.097656 204.910156 982.503906 188.203125 C 982.351562 187.875 982.222656 187.523438 982.085938 187.1875 C 981.6875 186.171875 981.289062 185.148438 980.765625 183.816406 L 1079.191406 183.816406 C 1078.230469 185.628906 1077.421875 187.285156 1076.507812 188.878906 C 1071.324219 197.921875 1066.140625 206.957031 1060.921875 215.976562 C 1056.15625 224.222656 1051.316406 232.429688 1046.585938 240.703125 C 1045.890625 241.917969 1045.226562 241.882812 1044.09375 241.554688 M 975.761719 169.046875 C 972.664062 155.789062 972.449219 142.460938 974.695312 129.105469 C 976.761719 116.84375 981.464844 105.515625 987.921875 94.921875 C 989.816406 91.808594 991.992188 88.863281 994.25 85.535156 C 1010.875 114.207031 1027.277344 142.503906 1043.90625 171.1875 C 1042.816406 171.28125 1042.136719 171.382812 1041.449219 171.382812 C 1020.5 171.386719 999.542969 171.359375 978.597656 171.421875 C 976.761719 171.421875 976.1875 170.875 975.761719 169.046875 M 1004.488281 74.257812 C 1015.722656 64.058594 1028.519531 56.488281 1042.871094 51.699219 C 1050.621094 49.109375 1058.667969 47.46875 1066.894531 47.441406 C 1072.613281 47.417969 1078.335938 47.839844 1084.046875 48.097656 C 1084.652344 48.125 1085.25 48.386719 1086.066406 48.601562 C 1069.539062 77.101562 1053.175781 105.320312 1036.53125 134.03125 C 1034.40625 130.328125 1032.507812 127.03125 1030.605469 123.742188 C 1023.410156 111.242188 1016.214844 98.746094 1009.019531 86.246094 C 1007.332031 83.316406 1005.675781 80.363281 1003.953125 77.445312 C 1003.199219 76.175781 1003.308594 75.335938 1004.488281 74.257812 M 1100.929688 51.328125 C 1124.25 58.371094 1142.582031 72.125 1155.886719 92.460938 C 1159.210938 97.535156 1161.710938 103.144531 1164.855469 109.003906 L 1065.273438 109.003906 C 1067.746094 104.695312 1070.046875 100.625 1072.410156 96.589844 C 1076.699219 89.253906 1081.019531 81.941406 1085.332031 74.625 C 1089.710938 67.167969 1094.125 59.730469 1098.453125 52.242188 C 1099.113281 51.101562 1099.714844 50.957031 1100.929688 51.328125 M 1075.078125 22.234375 C 1004.988281 21.074219 949.511719 78.964844 948.296875 143.828125 C 946.992188 213.644531 1005.550781 271.855469 1074.679688 270.722656 C 1140.488281 269.644531 1196.761719 214.246094 1196.6875 147.132812 C 1197.574219 78.941406 1140.300781 23.320312 1075.078125 22.234375 " fill-opacity="1" fill-rule="nonzero"/></g></svg>