<svg xmlns="http://www.w3.org/2000/svg" xmlns:xlink="http://www.w3.org/1999/xlink" width="2000" zoomAndPan="magnify" viewBox="0 0 1500 293.04" height="380" preserveAspectRatio="xMidYMid meet" version="1.0"><defs><g/><clipPath id="ec2afb4a83"><path d="M 927.59375 12 L 1186.992188 12 L 1186.992188 272 L 927.59375 272 Z M 927.59375 12 " clip-rule="nonzero"/></clipPath><clipPath id="f585ae3491"><path d="M 2.449219 0 L 921 0 L 921 284.070312 L 2.449219 284.070312 Z M 2.449219 0 " clip-rule="nonzero"/></clipPath><clipPath id="3600e131ba"><rect x="0" width="919" y="0" height="285"/></clipPath><clipPath id="741b73465e"><path d="M 1205 0 L 1497.550781 0 L 1497.550781 284.070312 L 1205 284.070312 Z M 1205 0 " clip-rule="nonzero"/></clipPath><clipPath id="83350b9455"><rect x="0" width="293" y="0" height="285"/></clipPath></defs><g clip-path="url(#ec2afb4a83)"><path fill="#ffffff" d="M 1071.6875 218.757812 C 1056.613281 232.394531 1040.171875 244.109375 1022.359375 253.902344 C 1017.59375 256.699219 1012.660156 259.289062 1007.5625 261.671875 C 1002.984375 259.773438 998.527344 257.617188 994.195312 255.207031 C 989.859375 252.796875 985.679688 250.148438 981.652344 247.257812 C 977.625 244.367188 973.773438 241.257812 970.101562 237.925781 C 966.429688 234.59375 962.960938 231.0625 959.695312 227.332031 C 956.429688 223.601562 953.386719 219.699219 950.566406 215.617188 C 947.75 211.539062 945.171875 207.3125 942.839844 202.9375 C 940.507812 198.5625 938.433594 194.070312 936.613281 189.457031 C 934.796875 184.84375 933.25 180.140625 931.972656 175.351562 C 937.152344 178.558594 942.578125 181.640625 948.003906 184.476562 C 957.5 189.617188 967.253906 194.207031 977.269531 198.246094 C 987.285156 202.28125 997.496094 205.742188 1007.902344 208.628906 C 1018.308594 211.511719 1028.84375 213.800781 1039.507812 215.496094 C 1050.171875 217.1875 1060.898438 218.277344 1071.6875 218.757812 Z M 997.699219 192.863281 C 992.753906 183.347656 988.355469 173.585938 984.503906 163.582031 C 980.648438 153.574219 977.363281 143.386719 974.644531 133.011719 C 971.929688 122.640625 969.796875 112.148438 968.25 101.539062 C 966.699219 90.929688 965.746094 80.265625 965.390625 69.546875 C 965.390625 63.382812 965.390625 57.21875 965.390625 51.175781 C 962.417969 54.15625 959.597656 57.273438 956.933594 60.53125 C 954.265625 63.789062 951.761719 67.167969 949.425781 70.667969 C 947.089844 74.167969 944.925781 77.777344 942.941406 81.488281 C 940.957031 85.199219 939.15625 89 937.542969 92.886719 C 935.929688 96.773438 934.507812 100.730469 933.28125 104.757812 C 932.050781 108.785156 931.023438 112.863281 930.195312 116.988281 C 929.363281 121.113281 928.738281 125.273438 928.3125 129.460938 C 927.890625 133.648438 927.667969 137.847656 927.65625 142.058594 C 927.648438 147.671875 928.019531 153.261719 928.765625 158.828125 C 933.371094 161.953125 938.054688 164.910156 942.824219 167.707031 C 960.191406 178.203125 978.523438 186.585938 997.820312 192.863281 Z M 1074.03125 26.140625 C 1079.332031 22.9375 1084.757812 19.730469 1090.308594 16.894531 C 1085.542969 15.628906 1080.722656 14.644531 1075.847656 13.933594 C 1070.96875 13.222656 1066.070312 12.789062 1061.144531 12.640625 C 1056.21875 12.488281 1051.296875 12.621094 1046.386719 13.035156 C 1041.476562 13.445312 1036.605469 14.136719 1031.773438 15.105469 C 1026.941406 16.074219 1022.179688 17.316406 1017.492188 18.832031 C 1012.800781 20.347656 1008.214844 22.121094 1003.726562 24.160156 C 999.242188 26.199219 994.882812 28.488281 990.660156 31.027344 C 986.433594 33.5625 982.367188 36.332031 978.460938 39.335938 C 978.460938 44.886719 977.722656 50.433594 977.597656 55.984375 C 977.316406 76.253906 979.25 96.316406 983.394531 116.160156 C 989.152344 107.089844 995.398438 98.363281 1002.128906 89.992188 C 1008.863281 81.617188 1016.042969 73.644531 1023.664062 66.070312 C 1031.289062 58.5 1039.3125 51.375 1047.730469 44.699219 C 1056.152344 38.023438 1064.917969 31.835938 1074.03125 26.140625 Z M 1166.144531 98.898438 C 1171.570312 101.734375 1176.996094 104.816406 1182.175781 108.023438 C 1180.898438 103.230469 1179.351562 98.53125 1177.53125 93.917969 C 1175.714844 89.304688 1173.640625 84.808594 1171.308594 80.4375 C 1168.972656 76.0625 1166.398438 71.835938 1163.578125 67.753906 C 1160.761719 63.675781 1157.71875 59.769531 1154.453125 56.042969 C 1151.1875 52.3125 1147.71875 48.78125 1144.046875 45.449219 C 1140.375 42.117188 1136.523438 39.007812 1132.496094 36.117188 C 1128.46875 33.226562 1124.285156 30.574219 1119.953125 28.164062 C 1115.621094 25.753906 1111.164062 23.601562 1106.585938 21.703125 C 1101.488281 24.085938 1096.554688 26.675781 1091.785156 29.472656 C 1073.992188 39.289062 1057.550781 51.003906 1042.460938 64.617188 C 1053.25 65.097656 1063.976562 66.183594 1074.640625 67.878906 C 1085.304688 69.574219 1095.839844 71.863281 1106.246094 74.746094 C 1116.652344 77.628906 1126.863281 81.089844 1136.878906 85.128906 C 1146.894531 89.167969 1156.648438 93.757812 1166.144531 98.898438 Z M 1148.757812 233.433594 C 1151.75 230.4375 1154.585938 227.304688 1157.269531 224.035156 C 1159.957031 220.761719 1162.472656 217.367188 1164.824219 213.847656 C 1167.175781 210.328125 1169.347656 206.703125 1171.34375 202.96875 C 1173.335938 199.238281 1175.144531 195.414062 1176.765625 191.507812 C 1178.382812 187.597656 1179.808594 183.617188 1181.039062 179.566406 C 1182.269531 175.515625 1183.296875 171.417969 1184.121094 167.265625 C 1184.949219 163.117188 1185.570312 158.933594 1185.988281 154.722656 C 1186.402344 150.511719 1186.613281 146.289062 1186.613281 142.058594 C 1186.621094 136.441406 1186.253906 130.851562 1185.503906 125.285156 C 1180.902344 122.246094 1176.214844 119.285156 1171.449219 116.40625 C 1154.058594 106.085938 1135.726562 97.863281 1116.449219 91.746094 C 1121.390625 101.261719 1125.789062 111.019531 1129.644531 121.027344 C 1133.5 131.03125 1136.785156 141.222656 1139.5 151.59375 C 1142.21875 161.96875 1144.351562 172.457031 1145.898438 183.070312 C 1147.445312 193.679688 1148.398438 204.34375 1148.757812 215.058594 C 1149.621094 221.222656 1149.621094 227.390625 1148.757812 233.433594 Z M 1040.242188 258.09375 C 1034.9375 261.300781 1029.511719 264.507812 1023.964844 267.34375 C 1028.726562 268.605469 1033.546875 269.59375 1038.425781 270.304688 C 1043.300781 271.015625 1048.203125 271.445312 1053.128906 271.597656 C 1058.054688 271.746094 1062.972656 271.617188 1067.882812 271.203125 C 1072.792969 270.792969 1077.664062 270.101562 1082.496094 269.132812 C 1087.328125 268.160156 1092.089844 266.917969 1096.78125 265.40625 C 1101.46875 263.890625 1106.058594 262.113281 1110.542969 260.074219 C 1115.03125 258.035156 1119.386719 255.75 1123.609375 253.210938 C 1127.835938 250.671875 1131.902344 247.902344 1135.808594 244.902344 C 1135.808594 239.351562 1136.550781 233.800781 1136.671875 228.253906 C 1136.953125 207.980469 1135.019531 187.921875 1130.878906 168.078125 C 1125.117188 177.136719 1118.867188 185.851562 1112.132812 194.214844 C 1105.398438 202.578125 1098.21875 210.539062 1090.59375 218.101562 C 1082.972656 225.664062 1074.949219 232.777344 1066.53125 239.441406 C 1058.113281 246.109375 1049.351562 252.285156 1040.242188 257.972656 Z M 1040.242188 258.09375 " fill-opacity="1" fill-rule="nonzero"/></g><g clip-path="url(#f585ae3491)"><g transform="matrix(1, 0, 0, 1, 2, -0.000000000000008175)"><g clip-path="url(#3600e131ba)"><g fill="#ffffff" fill-opacity="1"><g transform="translate(0.44898, 252.858318)"><g><path d="M 87.4375 3.3125 C 72.988281 3.3125 60.195312 1.230469 49.0625 -2.921875 C 37.925781 -7.085938 28.921875 -13.054688 22.046875 -20.828125 C 15.171875 -28.609375 10.878906 -37.914062 9.171875 -48.75 L 58.390625 -54.625 C 60.191406 -47.695312 63.550781 -42.398438 68.46875 -38.734375 C 73.382812 -35.078125 80.15625 -33.25 88.78125 -33.25 C 96.007812 -33.25 101.703125 -34.53125 105.859375 -37.09375 C 110.023438 -39.65625 112.109375 -43.039062 112.109375 -47.25 C 112.109375 -50.957031 110.453125 -53.988281 107.140625 -56.34375 C 103.828125 -58.707031 98.710938 -60.539062 91.796875 -61.84375 L 62.59375 -67.421875 C 46.144531 -70.523438 33.804688 -76.113281 25.578125 -84.1875 C 17.359375 -92.269531 13.25 -102.734375 13.25 -115.578125 C 13.25 -126.609375 16.234375 -136.0625 22.203125 -143.9375 C 28.171875 -151.8125 36.644531 -157.878906 47.625 -162.140625 C 58.613281 -166.410156 71.628906 -168.546875 86.671875 -168.546875 C 100.816406 -168.546875 113.15625 -166.585938 123.6875 -162.671875 C 134.226562 -158.753906 142.632812 -153.1875 148.90625 -145.96875 C 155.175781 -138.75 159.113281 -130.117188 160.71875 -120.078125 L 114.0625 -114.359375 C 112.757812 -119.984375 109.800781 -124.425781 105.1875 -127.6875 C 100.570312 -130.945312 94.753906 -132.578125 87.734375 -132.578125 C 81.304688 -132.578125 75.984375 -131.296875 71.765625 -128.734375 C 67.554688 -126.179688 65.453125 -122.796875 65.453125 -118.578125 C 65.453125 -115.171875 66.832031 -112.210938 69.59375 -109.703125 C 72.351562 -107.191406 77.144531 -105.285156 83.96875 -103.984375 L 116.015625 -97.96875 C 132.671875 -94.851562 145.0625 -89.609375 153.1875 -82.234375 C 161.3125 -74.859375 165.375 -65.101562 165.375 -52.96875 C 165.375 -41.632812 162.035156 -31.753906 155.359375 -23.328125 C 148.691406 -14.898438 139.515625 -8.351562 127.828125 -3.6875 C 116.140625 0.976562 102.675781 3.3125 87.4375 3.3125 Z M 87.4375 3.3125 "/></g></g><g transform="translate(174.85432, 252.858318)"><g><path d="M 64.109375 3.015625 C 53.367188 3.015625 43.835938 1.183594 35.515625 -2.46875 C 27.191406 -6.132812 20.671875 -11.578125 15.953125 -18.796875 C 11.234375 -26.023438 8.875 -35.160156 8.875 -46.203125 C 8.875 -55.429688 10.503906 -63.203125 13.765625 -69.515625 C 17.023438 -75.835938 21.539062 -80.976562 27.3125 -84.9375 C 33.082031 -88.90625 39.726562 -91.941406 47.25 -94.046875 C 54.769531 -96.160156 62.796875 -97.566406 71.328125 -98.265625 C 80.859375 -99.066406 88.53125 -99.941406 94.34375 -100.890625 C 100.164062 -101.847656 104.378906 -103.253906 106.984375 -105.109375 C 109.597656 -106.960938 110.90625 -109.546875 110.90625 -112.859375 L 110.90625 -113.609375 C 110.90625 -117.328125 110 -120.515625 108.1875 -123.171875 C 106.382812 -125.828125 103.800781 -127.859375 100.4375 -129.265625 C 97.082031 -130.671875 93 -131.375 88.1875 -131.375 C 83.363281 -131.375 79.117188 -130.644531 75.453125 -129.1875 C 71.796875 -127.726562 68.789062 -125.695312 66.4375 -123.09375 C 64.082031 -120.488281 62.503906 -117.429688 61.703125 -113.921875 L 14 -118.734375 C 15.90625 -128.765625 20.039062 -137.515625 26.40625 -144.984375 C 32.78125 -152.460938 41.234375 -158.257812 51.765625 -162.375 C 62.296875 -166.488281 74.734375 -168.546875 89.078125 -168.546875 C 99.710938 -168.546875 109.546875 -167.316406 118.578125 -164.859375 C 127.609375 -162.398438 135.457031 -158.785156 142.125 -154.015625 C 148.800781 -149.253906 153.96875 -143.410156 157.625 -136.484375 C 161.289062 -129.566406 163.125 -121.59375 163.125 -112.5625 L 163.125 0 L 113.46875 0 L 113.46875 -23.328125 L 112.265625 -23.328125 C 109.253906 -17.609375 105.460938 -12.789062 100.890625 -8.875 C 96.328125 -4.96875 90.984375 -2.007812 84.859375 0 C 78.742188 2.007812 71.828125 3.015625 64.109375 3.015625 Z M 80.0625 -31.59375 C 85.875 -31.59375 91.160156 -32.769531 95.921875 -35.125 C 100.691406 -37.488281 104.457031 -40.75 107.21875 -44.90625 C 109.976562 -49.070312 111.359375 -53.867188 111.359375 -59.296875 L 111.359375 -75.09375 C 109.953125 -74.289062 108.144531 -73.5625 105.9375 -72.90625 C 103.726562 -72.257812 101.316406 -71.632812 98.703125 -71.03125 C 96.097656 -70.425781 93.414062 -69.894531 90.65625 -69.4375 C 87.90625 -68.988281 85.222656 -68.566406 82.609375 -68.171875 C 77.597656 -67.460938 73.285156 -66.253906 69.671875 -64.546875 C 66.054688 -62.847656 63.296875 -60.691406 61.390625 -58.078125 C 59.484375 -55.472656 58.53125 -52.316406 58.53125 -48.609375 C 58.53125 -44.992188 59.457031 -41.90625 61.3125 -39.34375 C 63.175781 -36.789062 65.710938 -34.859375 68.921875 -33.546875 C 72.128906 -32.242188 75.84375 -31.59375 80.0625 -31.59375 Z M 80.0625 -31.59375 "/></g></g><g transform="translate(354.676909, 252.858318)"><g><path d="M 116.78125 2.703125 C 108.644531 2.703125 101.46875 1.347656 95.25 -1.359375 C 89.03125 -4.066406 83.835938 -7.625 79.671875 -12.03125 C 75.515625 -16.445312 72.234375 -21.316406 69.828125 -26.640625 L 68.46875 -26.640625 L 68.46875 0 L 16.703125 0 L 16.703125 -224.21875 L 69.078125 -224.21875 L 69.078125 -138.890625 L 69.96875 -138.890625 C 72.375 -144.109375 75.632812 -148.972656 79.75 -153.484375 C 83.863281 -158.003906 89.003906 -161.644531 95.171875 -164.40625 C 101.347656 -167.164062 108.695312 -168.546875 117.21875 -168.546875 C 129.363281 -168.546875 140.523438 -165.359375 150.703125 -158.984375 C 160.890625 -152.609375 169.066406 -143.078125 175.234375 -130.390625 C 181.398438 -117.703125 184.484375 -101.878906 184.484375 -82.921875 C 184.484375 -64.460938 181.5 -48.859375 175.53125 -36.109375 C 169.5625 -23.367188 161.484375 -13.710938 151.296875 -7.140625 C 141.117188 -0.578125 129.613281 2.703125 116.78125 2.703125 Z M 99.625 -38.375 C 106.34375 -38.375 112.007812 -40.226562 116.625 -43.9375 C 121.238281 -47.65625 124.773438 -52.847656 127.234375 -59.515625 C 129.691406 -66.179688 130.921875 -74.03125 130.921875 -83.0625 C 130.921875 -92.09375 129.691406 -99.914062 127.234375 -106.53125 C 124.773438 -113.15625 121.238281 -118.296875 116.625 -121.953125 C 112.007812 -125.617188 106.34375 -127.453125 99.625 -127.453125 C 93 -127.453125 87.273438 -125.644531 82.453125 -122.03125 C 77.640625 -118.425781 73.953125 -113.3125 71.390625 -106.6875 C 68.835938 -100.070312 67.5625 -92.195312 67.5625 -83.0625 C 67.5625 -74.03125 68.863281 -66.179688 71.46875 -59.515625 C 74.082031 -52.847656 77.769531 -47.65625 82.53125 -43.9375 C 87.300781 -40.226562 93 -38.375 99.625 -38.375 Z M 99.625 -38.375 "/></g></g><g transform="translate(549.246457, 252.858318)"><g><path d="M 87.4375 3.3125 C 72.988281 3.3125 60.195312 1.230469 49.0625 -2.921875 C 37.925781 -7.085938 28.921875 -13.054688 22.046875 -20.828125 C 15.171875 -28.609375 10.878906 -37.914062 9.171875 -48.75 L 58.390625 -54.625 C 60.191406 -47.695312 63.550781 -42.398438 68.46875 -38.734375 C 73.382812 -35.078125 80.15625 -33.25 88.78125 -33.25 C 96.007812 -33.25 101.703125 -34.53125 105.859375 -37.09375 C 110.023438 -39.65625 112.109375 -43.039062 112.109375 -47.25 C 112.109375 -50.957031 110.453125 -53.988281 107.140625 -56.34375 C 103.828125 -58.707031 98.710938 -60.539062 91.796875 -61.84375 L 62.59375 -67.421875 C 46.144531 -70.523438 33.804688 -76.113281 25.578125 -84.1875 C 17.359375 -92.269531 13.25 -102.734375 13.25 -115.578125 C 13.25 -126.609375 16.234375 -136.0625 22.203125 -143.9375 C 28.171875 -151.8125 36.644531 -157.878906 47.625 -162.140625 C 58.613281 -166.410156 71.628906 -168.546875 86.671875 -168.546875 C 100.816406 -168.546875 113.15625 -166.585938 123.6875 -162.671875 C 134.226562 -158.753906 142.632812 -153.1875 148.90625 -145.96875 C 155.175781 -138.75 159.113281 -130.117188 160.71875 -120.078125 L 114.0625 -114.359375 C 112.757812 -119.984375 109.800781 -124.425781 105.1875 -127.6875 C 100.570312 -130.945312 94.753906 -132.578125 87.734375 -132.578125 C 81.304688 -132.578125 75.984375 -131.296875 71.765625 -128.734375 C 67.554688 -126.179688 65.453125 -122.796875 65.453125 -118.578125 C 65.453125 -115.171875 66.832031 -112.210938 69.59375 -109.703125 C 72.351562 -107.191406 77.144531 -105.285156 83.96875 -103.984375 L 116.015625 -97.96875 C 132.671875 -94.851562 145.0625 -89.609375 153.1875 -82.234375 C 161.3125 -74.859375 165.375 -65.101562 165.375 -52.96875 C 165.375 -41.632812 162.035156 -31.753906 155.359375 -23.328125 C 148.691406 -14.898438 139.515625 -8.351562 127.828125 -3.6875 C 116.140625 0.976562 102.675781 3.3125 87.4375 3.3125 Z M 87.4375 3.3125 "/></g></g><g transform="translate(723.651797, 252.858318)"><g><path d="M 69.078125 -93.90625 L 69.078125 0 L 16.703125 0 L 16.703125 -224.21875 L 68.171875 -224.21875 L 68.171875 -123.703125 L 63.796875 -123.703125 C 68.117188 -137.242188 74.71875 -148.101562 83.59375 -156.28125 C 92.46875 -164.457031 104.378906 -168.546875 119.328125 -168.546875 C 131.066406 -168.546875 141.222656 -165.960938 149.796875 -160.796875 C 158.378906 -155.628906 165.023438 -148.300781 169.734375 -138.8125 C 174.453125 -129.332031 176.8125 -118.222656 176.8125 -105.484375 L 176.8125 0 L 124.453125 0 L 124.453125 -95.25 C 124.453125 -104.6875 122.066406 -112.035156 117.296875 -117.296875 C 112.535156 -122.566406 105.890625 -125.203125 97.359375 -125.203125 C 91.742188 -125.203125 86.800781 -123.972656 82.53125 -121.515625 C 78.269531 -119.054688 74.960938 -115.519531 72.609375 -110.90625 C 70.253906 -106.289062 69.078125 -100.625 69.078125 -93.90625 Z M 69.078125 -93.90625 "/></g></g></g></g></g></g><g clip-path="url(#741b73465e)"><g transform="matrix(1, 0, 0, 1, 1205, -0.000000000000008175)"><g clip-path="url(#83350b9455)"><g fill="#ffffff" fill-opacity="1"><g transform="translate(0.90013, 253.082803)"><g><path d="M 109.640625 -166.265625 L 109.640625 -127.109375 L 3.015625 -127.109375 L 3.015625 -166.265625 Z M 26.359375 -207.078125 L 78.765625 -207.078125 L 78.765625 -51.953125 C 78.765625 -47.335938 79.816406 -43.972656 81.921875 -41.859375 C 84.035156 -39.753906 87.550781 -38.703125 92.46875 -38.703125 C 94.476562 -38.703125 97.160156 -38.875 100.515625 -39.21875 C 103.878906 -39.570312 106.316406 -39.898438 107.828125 -40.203125 L 113.09375 -1.5 C 107.875 -0.195312 102.503906 0.703125 96.984375 1.203125 C 91.460938 1.703125 86.140625 1.953125 81.015625 1.953125 C 62.847656 1.953125 49.195312 -2.109375 40.0625 -10.234375 C 30.925781 -18.367188 26.359375 -30.421875 26.359375 -46.390625 Z M 26.359375 -207.078125 "/></g></g></g><g fill="#ffffff" fill-opacity="1"><g transform="translate(117.46317, 253.082803)"><g><path d="M 87.5 3.3125 C 73.039062 3.3125 60.238281 1.226562 49.09375 -2.9375 C 37.945312 -7.101562 28.9375 -13.078125 22.0625 -20.859375 C 15.1875 -28.640625 10.894531 -37.953125 9.1875 -48.796875 L 58.4375 -54.671875 C 60.238281 -47.742188 63.597656 -42.445312 68.515625 -38.78125 C 73.441406 -35.113281 80.222656 -33.28125 88.859375 -33.28125 C 96.078125 -33.28125 101.769531 -34.5625 105.9375 -37.125 C 110.101562 -39.6875 112.1875 -43.070312 112.1875 -47.28125 C 112.1875 -51 110.53125 -54.035156 107.21875 -56.390625 C 103.90625 -58.753906 98.785156 -60.585938 91.859375 -61.890625 L 62.640625 -67.46875 C 46.179688 -70.582031 33.832031 -76.175781 25.59375 -84.25 C 17.363281 -92.332031 13.25 -102.800781 13.25 -115.65625 C 13.25 -126.695312 16.234375 -136.160156 22.203125 -144.046875 C 28.179688 -151.929688 36.664062 -158.003906 47.65625 -162.265625 C 58.65625 -166.535156 71.6875 -168.671875 86.75 -168.671875 C 100.90625 -168.671875 113.253906 -166.710938 123.796875 -162.796875 C 134.335938 -158.878906 142.742188 -153.304688 149.015625 -146.078125 C 155.285156 -138.847656 159.226562 -130.210938 160.84375 -120.171875 L 114.15625 -114.453125 C 112.84375 -120.078125 109.878906 -124.519531 105.265625 -127.78125 C 100.648438 -131.039062 94.828125 -132.671875 87.796875 -132.671875 C 81.367188 -132.671875 76.046875 -131.390625 71.828125 -128.828125 C 67.617188 -126.273438 65.515625 -122.890625 65.515625 -118.671875 C 65.515625 -115.253906 66.894531 -112.289062 69.65625 -109.78125 C 72.414062 -107.269531 77.207031 -105.363281 84.03125 -104.0625 L 116.109375 -98.03125 C 132.773438 -94.925781 145.171875 -89.679688 153.296875 -82.296875 C 161.429688 -74.921875 165.5 -65.160156 165.5 -53.015625 C 165.5 -41.671875 162.160156 -31.78125 155.484375 -23.34375 C 148.804688 -14.90625 139.617188 -8.351562 127.921875 -3.6875 C 116.234375 0.976562 102.757812 3.3125 87.5 3.3125 Z M 87.5 3.3125 "/></g></g></g></g></g></g></svg>