<svg xmlns="http://www.w3.org/2000/svg" viewBox="944 18 256 256" width="256" height="256"><path fill="#010101" fill-rule="nonzero" d="M 1151.6875 206.0625 C 1151.472656 206.34375 1151.21875 206.59375 1150.703125 207.167969 C 1134.183594 178.667969 1117.78125 150.363281 1101.128906 121.652344 C 1102.488281 121.589844 1103.273438 121.519531 1104.046875 121.519531 C 1124.761719 121.511719 1145.480469 121.539062 1166.1875 121.472656 C 1168.15625 121.464844 1168.941406 122.007812 1169.378906 124.019531 C 1173.492188 142.660156 1172.722656 161.042969 1166.332031 179.039062 C 1162.878906 188.773438 1158.023438 197.84375 1151.6875 206.0625 M 1140.859375 218.484375 C 1130.996094 227.292969 1120.066406 234.367188 1107.714844 239.199219 C 1092.617188 245.109375 1077.042969 247.046875 1060.96875 244.855469 C 1060.414062 244.78125 1059.863281 244.617188 1058.976562 244.425781 C 1075.554688 215.839844 1091.929688 187.597656 1108.558594 158.921875 C 1109.925781 161.273438 1111.066406 163.21875 1112.183594 165.167969 C 1119.402344 177.726562 1126.617188 190.292969 1133.832031 202.855469 C 1136.292969 207.128906 1138.722656 211.410156 1141.214844 215.65625 C 1141.859375 216.761719 1141.910156 217.542969 1140.859375 218.484375 M 1044.09375 241.554688 C 1034.28125 238.699219 1025.15625 234.414062 1016.722656 228.632812 C 1001.617188 218.285156 990.097656 204.910156 982.503906 188.203125 C 982.351562 187.875 982.222656 187.523438 982.085938 187.1875 C 981.6875 186.171875 981.289062 185.148438 980.765625 183.816406 L 1079.191406 183.816406 C 1078.230469 185.628906 1077.421875 187.285156 1076.507812 188.878906 C 1071.324219 197.921875 1066.140625 206.957031 1060.921875 215.976562 C 1056.15625 224.222656 1051.316406 232.429688 1046.585938 240.703125 C 1045.890625 241.917969 1045.226562 241.882812 1044.09375 241.554688 M 975.761719 169.046875 C 972.664062 155.789062 972.449219 142.460938 974.695312 129.105469 C 976.761719 116.84375 981.464844 105.515625 987.921875 94.921875 C 989.816406 91.808594 991.992188 88.863281 994.25 85.535156 C 1010.875 114.207031 1027.277344 142.503906 1043.90625 171.1875 C 1042.816406 171.28125 1042.136719 171.382812 1041.449219 171.382812 C 1020.5 171.386719 999.542969 171.359375 978.597656 171.421875 C 976.761719 171.421875 976.1875 170.875 975.761719 169.046875 M 1004.488281 74.257812 C 1015.722656 64.058594 1028.519531 56.488281 1042.871094 51.699219 C 1050.621094 49.109375 1058.667969 47.46875 1066.894531 47.441406 C 1072.613281 47.417969 1078.335938 47.839844 1084.046875 48.097656 C 1084.652344 48.125 1085.25 48.386719 1086.066406 48.601562 C 1069.539062 77.101562 1053.175781 105.320312 1036.53125 134.03125 C 1034.40625 130.328125 1032.507812 127.03125 1030.605469 123.742188 C 1023.410156 111.242188 1016.214844 98.746094 1009.019531 86.246094 C 1007.332031 83.316406 1005.675781 80.363281 1003.953125 77.445312 C 1003.199219 76.175781 1003.308594 75.335938 1004.488281 74.257812 M 1100.929688 51.328125 C 1124.25 58.371094 1142.582031 72.125 1155.886719 92.460938 C 1159.210938 97.535156 1161.710938 103.144531 1164.855469 109.003906 L 1065.273438 109.003906 C 1067.746094 104.695312 1070.046875 100.625 1072.410156 96.589844 C 1076.699219 89.257812 1081.019531 81.941406 1085.332031 74.625 C 1089.710938 67.167969 1094.125 59.730469 1098.453125 52.242188 C 1099.113281 51.101562 1099.714844 50.957031 1100.929688 51.328125 M 1075.078125 22.234375 C 1004.988281 21.074219 949.511719 78.964844 948.296875 143.828125 C 946.992188 213.644531 1005.550781 271.855469 1074.679688 270.722656 C 1140.488281 269.644531 1196.761719 214.246094 1196.6875 147.132812 C 1197.574219 78.941406 1140.300781 23.320312 1075.078125 22.234375 " /></svg>
